<svg width="621" height="1015" viewBox="0 0 621 1015" fill="none" xmlns="http://www.w3.org/2000/svg">
<rect width="621" height="1015" fill="#E5E5E5"/>
<path d="M310 373.266C207.973 373.266 125.266 455.973 125.266 558C125.266 660.027 207.973 742.734 310 742.734C412.027 742.734 494.734 660.027 494.734 558C494.734 455.973 412.027 373.266 310 373.266ZM401.148 529.281L401.016 625.266L400.008 628.844C396.586 641.02 388.227 649.637 376.387 653.191C368.02 655.703 355.793 656.637 349.785 655.219C344.441 653.961 340.566 651.727 336.328 647.461C330.16 641.258 327.426 634.922 327.414 626.812C327.406 622.277 328.211 618.859 330.359 614.305C333.398 607.863 337.328 603.984 344.41 600.445C350.078 597.613 355.148 596.145 369.953 593.051C379.684 591.016 382.055 590.145 383.949 587.891C386.559 584.793 386.504 585.941 386.367 536.828C386.254 494.16 386.203 491.813 385.43 490.629C384.277 488.871 381.879 487.965 379.344 488.328C376.652 488.715 280.902 508.086 278.516 508.73C275.859 509.445 273.941 511.555 273.324 514.434C272.961 516.133 272.867 650.91 270.02 658.477C269.211 660.637 267.754 663.613 266.785 665.09C264.34 668.82 259.637 673.363 255.984 675.527C247.238 680.699 230.145 683.359 221.012 680.969C211.336 678.434 204.148 671.848 200.91 662.551C199.359 658.098 198.992 650.77 200.082 645.875C201.223 640.754 203.859 635.871 207.418 632.297C213.687 626 221.094 623.074 241.047 619.008C245.352 618.133 249.797 617.113 250.918 616.742C253.289 615.965 255.859 613.523 257.02 610.945C257.781 609.25 258.273 458.805 258.273 458.805L259.32 456.684C260.555 454.176 263.156 451.813 265.785 450.816C267.48 450.176 366.918 429.906 383.785 426.766C387.602 426.055 391.687 425.473 392.867 425.473C396.773 425.469 399.645 427.664 400.762 431.512C401.152 432.852 401.246 457.402 401.148 529.281V529.281Z" fill="#8A8A8F" fill-opacity="0.1"/>
<path d="M529.074 302H90.9258C70.5312 302 54 318.531 54 338.926V777.074C54 797.469 70.5312 814 90.9258 814H529.074C549.469 814 566 797.469 566 777.074V338.926C566 318.531 549.469 302 529.074 302V302ZM310 759.676C198.617 759.676 108.324 669.383 108.324 558C108.324 446.617 198.617 356.324 310 356.324C421.383 356.324 511.676 446.617 511.676 558C511.676 669.383 421.383 759.676 310 759.676Z" fill="#8A8A8F" fill-opacity="0.1"/>
</svg>
