<svg width="155" height="155" viewBox="0 0 155 155" fill="none" xmlns="http://www.w3.org/2000/svg">
<path d="M77.5 21.5746C46.6128 21.5746 21.5746 46.6128 21.5746 77.5C21.5746 108.387 46.6128 133.425 77.5 133.425C108.387 133.425 133.425 108.387 133.425 77.5C133.425 46.6128 108.387 21.5746 77.5 21.5746ZM105.094 68.8059L105.054 97.8636L104.748 98.9469C103.713 102.633 101.182 105.242 97.5975 106.318C95.0645 107.078 91.3631 107.361 89.5443 106.931C87.9266 106.551 86.7535 105.874 85.4704 104.583C83.6032 102.705 82.7754 100.787 82.7718 98.3319C82.7695 96.959 83.0131 95.9243 83.6635 94.5454C84.5835 92.5954 85.7732 91.4211 87.9171 90.3497C89.633 89.4923 91.168 89.0477 95.6499 88.1111C98.5956 87.495 99.3134 87.2313 99.887 86.549C100.677 85.6112 100.66 85.9589 100.619 71.0906C100.585 58.1735 100.569 57.4628 100.335 57.1045C99.9863 56.5723 99.2602 56.298 98.4927 56.408C97.678 56.525 68.6911 62.3893 67.9686 62.5844C67.1645 62.8009 66.5838 63.4394 66.397 64.311C66.287 64.8254 66.2586 105.627 65.3965 107.918C65.1517 108.572 64.7107 109.473 64.4174 109.92C63.6771 111.049 62.2533 112.424 61.1476 113.08C58.4999 114.645 53.325 115.451 50.5602 114.727C47.631 113.959 45.4551 111.966 44.4748 109.151C44.0053 107.803 43.8941 105.585 44.2241 104.103C44.5694 102.552 45.3676 101.074 46.4449 99.9922C48.3429 98.086 50.585 97.2002 56.6255 95.9692C57.9287 95.7043 59.2744 95.3957 59.6138 95.2833C60.3316 95.048 61.1098 94.3089 61.461 93.5284C61.6916 93.0152 61.8406 47.4702 61.8406 47.4702L62.1575 46.8281C62.5312 46.0689 63.3188 45.3534 64.1146 45.0519C64.6279 44.8579 94.731 38.7216 99.8373 37.7709C100.993 37.5556 102.23 37.3794 102.587 37.3794C103.769 37.3783 104.638 38.0429 104.977 39.2077C105.095 39.6133 105.123 47.0457 105.094 68.8059V68.8059Z" fill="white" fill-opacity="0.5"/>
<path d="M143.821 0H11.1787C5.00458 0 0 5.00458 0 11.1787V143.821C0 149.995 5.00458 155 11.1787 155H143.821C149.995 155 155 149.995 155 143.821V11.1787C155 5.00458 149.995 0 143.821 0V0ZM77.5 138.554C43.7806 138.554 16.4458 111.219 16.4458 77.5C16.4458 43.7806 43.7806 16.4458 77.5 16.4458C111.219 16.4458 138.554 43.7806 138.554 77.5C138.554 111.219 111.219 138.554 77.5 138.554Z" fill="white" fill-opacity="0.5"/>
</svg>
