<svg width="512" height="512" viewBox="0 0 512 512" fill="none" xmlns="http://www.w3.org/2000/svg">
<path d="M256 71.2656C153.973 71.2656 71.2656 153.973 71.2656 256C71.2656 358.027 153.973 440.734 256 440.734C358.027 440.734 440.734 358.027 440.734 256C440.734 153.973 358.027 71.2656 256 71.2656ZM347.148 227.281L347.016 323.266L346.008 326.844C342.586 339.02 334.227 347.637 322.387 351.191C314.02 353.703 301.793 354.637 295.785 353.219C290.441 351.961 286.566 349.727 282.328 345.461C276.16 339.258 273.426 332.922 273.414 324.812C273.406 320.277 274.211 316.859 276.359 312.305C279.398 305.863 283.328 301.984 290.41 298.445C296.078 295.613 301.148 294.145 315.953 291.051C325.684 289.016 328.055 288.145 329.949 285.891C332.559 282.793 332.504 283.941 332.367 234.828C332.254 192.16 332.203 189.813 331.43 188.629C330.277 186.871 327.879 185.965 325.344 186.328C322.652 186.715 226.902 206.086 224.516 206.73C221.859 207.445 219.941 209.555 219.324 212.434C218.961 214.133 218.867 348.91 216.02 356.477C215.211 358.637 213.754 361.613 212.785 363.09C210.34 366.82 205.637 371.363 201.984 373.527C193.238 378.699 176.145 381.359 167.012 378.969C157.336 376.434 150.148 369.848 146.91 360.551C145.359 356.098 144.992 348.77 146.082 343.875C147.223 338.754 149.859 333.871 153.418 330.297C159.687 324 167.094 321.074 187.047 317.008C191.352 316.133 195.797 315.113 196.918 314.742C199.289 313.965 201.859 311.523 203.02 308.945C203.781 307.25 204.273 156.805 204.273 156.805L205.32 154.684C206.555 152.176 209.156 149.813 211.785 148.816C213.48 148.176 312.918 127.906 329.785 124.766C333.602 124.055 337.687 123.473 338.867 123.473C342.773 123.469 345.645 125.664 346.762 129.512C347.152 130.852 347.246 155.402 347.148 227.281V227.281Z" fill="#8A8A8F" fill-opacity="0.1"/>
<path d="M475.074 0H36.9258C16.5312 0 0 16.5312 0 36.9258V475.074C0 495.469 16.5312 512 36.9258 512H475.074C495.469 512 512 495.469 512 475.074V36.9258C512 16.5312 495.469 0 475.074 0V0ZM256 457.676C144.617 457.676 54.3242 367.383 54.3242 256C54.3242 144.617 144.617 54.3242 256 54.3242C367.383 54.3242 457.676 144.617 457.676 256C457.676 367.383 367.383 457.676 256 457.676Z" fill="#8A8A8F" fill-opacity="0.1"/>
</svg>
